# xmcd
#
# Track frame offsets: 
#        150
#        9438
#        21011
#        31409
#        43583
#        55817
#        64065
#        74554
#        86360
#        97669
#        107775
#        119701
#        131465
#        143965
#        154267
#        162858
#        172549
#        184836
#        195823
#        206668
#        214447
#
# Disc length: 3032 seconds
#
# Revision: 0
# Processed by: cddbd v1.5.2PL0 Copyright (c) Steve Scherf et al.
# Submitted via: ExactAudioCopyFreeDBPlugin 1.0
#
DISCID=1c0bd615
DTITLE=Johnny Cash - Icons [CD2)
DYEAR=2009
DGENRE=Country
TTITLE0=One More Ride
TTITLE1=Big River
TTITLE2=There You Go
TTITLE3=You're The Nearest Thing To Heaven
TTITLE4=Give My Love To Rose
TTITLE5=Wreck Of The Old '97
TTITLE6=The Troubadour
TTITLE7=So Doggone Lonesome
TTITLE8=Don't Make Me Go
TTITLE9=All Over Again
TTITLE10=Doin' My Time
TTITLE11=I Still Miss Someone
TTITLE12=Next In Line
TTITLE13=I Was There When It Happened
TTITLE14=Country Boy
TTITLE15=What Do I Care
TTITLE16=That's Enough
TTITLE17=I Heard That Lonesome Whistle Blow
TTITLE18=Run Softly, Blue River
TTITLE19=If The Good Lord's Willing And The Creeks Don't Rise
TTITLE20=Supper-Time
EXTD=
EXTT0=
EXTT1=
EXTT2=
EXTT3=
EXTT4=
EXTT5=
EXTT6=
EXTT7=
EXTT8=
EXTT9=
EXTT10=
EXTT11=
EXTT12=
EXTT13=
EXTT14=
EXTT15=
EXTT16=
EXTT17=
EXTT18=
EXTT19=
EXTT20=
PLAYORDER=
